<svg width="34" height="34" viewBox="0 0 34 34" fill="none" xmlns="http://www.w3.org/2000/svg">
<path d="M20.1582 25.023C19.2912 24.1701 18.2109 24.1701 17.351 25.023C16.6972 25.6768 16.0363 26.3235 15.3895 26.9915C15.2119 27.1692 15.0626 27.2118 14.8494 27.091C14.423 26.8636 13.9753 26.6717 13.5631 26.4159C11.6585 25.222 10.0666 23.6798 8.65233 21.9457C7.94876 21.0858 7.32336 20.1619 6.89696 19.1315C6.81168 18.9182 6.82589 18.7832 6.99645 18.6127C7.65028 17.9802 8.29699 17.3263 8.9366 16.6796C9.83205 15.7771 9.83205 14.7181 8.92949 13.8014C8.41781 13.2826 7.89901 12.7709 7.38732 12.2592C6.85432 11.7262 6.33552 11.1932 5.79541 10.6744C4.92838 9.82159 3.84815 9.82159 2.98824 10.6744C2.32731 11.3211 1.6877 11.9963 1.01966 12.6288C0.394265 13.2257 0.0815672 13.9435 0.0176063 14.7892C-0.0818885 16.1608 0.25213 17.4543 0.721176 18.7264C1.6948 21.3417 3.17301 23.6585 4.96392 25.7905C7.38022 28.6687 10.2727 30.95 13.6555 32.5917C15.1763 33.3308 16.7612 33.8993 18.4739 33.9917C19.6536 34.0557 20.6841 33.7572 21.5014 32.8404C22.0628 32.2079 22.6953 31.6394 23.2923 31.0353C24.1735 30.1469 24.1806 29.0596 23.3065 28.1784C22.2618 27.1195 21.21 26.0677 20.1582 25.023Z" fill="#FF5B2E"/>
<path d="M23.2213 0C17.273 0 12.4546 4.81839 12.4546 10.7668C12.4546 13.5739 13.5277 16.1324 15.2902 18.0441C14.878 18.8827 14.2029 19.8776 13.1653 20.3822C12.8028 20.5599 12.8881 21.1 13.2861 21.1639C14.4587 21.3487 16.1288 21.1497 17.7065 20.0055C19.3197 20.9721 21.2101 21.5264 23.2284 21.5264C29.1768 21.5264 33.9952 16.708 33.9952 10.7596C33.9881 4.82549 29.1697 0 23.2213 0ZM23.2213 5.82044C20.4923 5.82044 18.275 8.03775 18.275 10.7668C18.275 11.4774 17.6994 12.0531 16.9887 12.0531C16.278 12.0531 15.7024 11.4774 15.7024 10.7668C15.7024 6.6164 19.0781 3.24069 23.2284 3.24069C23.9391 3.24069 24.5148 3.81633 24.5148 4.52701C24.5077 5.24479 23.932 5.82044 23.2213 5.82044Z" fill="#FF5B2E"/>
</svg>
